HIERARCHY
ROOT mixamorig:Hips
{
	OFFSET 0.00 0.00 0.00
	CHANNELS 6 Xposition Yposition Zposition Zrotation Yrotation Xrotation
	JOINT mixamorig:Spine
	{
		OFFSET	0.0000	9.9235	-1.2273
		CHANNELS 3 Zrotation Yrotation Xrotation
		JOINT mixamorig:Spine1
		{
			OFFSET	-0.0001	11.6454	-1.4223
			CHANNELS 3 Zrotation Yrotation Xrotation
			JOINT mixamorig:Spine2
			{
				OFFSET	0.0001	13.3602	-1.6265
				CHANNELS 3 Zrotation Yrotation Xrotation
				JOINT mixamorig:Neck
				{
					OFFSET	0.0000	15.0325	0.7929
					CHANNELS 3 Zrotation Yrotation Xrotation
					JOINT mixamorig:Head
					{
						OFFSET	0.0000	10.3218	3.1424
						CHANNELS 3 Zrotation Yrotation Xrotation
						JOINT mixamorig:HeadTop_End
						{
							OFFSET	0.0002	18.4747	6.6364
							CHANNELS 3 Zrotation Yrotation Xrotation
							End Site
							{
								OFFSET 0.0000 0.0000 0.0000
							}
						}
						JOINT mixamorig:LeftEye
						{
							OFFSET	2.9479	7.6817	9.1207
							CHANNELS 3 Zrotation Yrotation Xrotation
							End Site
							{
								OFFSET 0.0000 0.0000 0.0000
							}
						}
						JOINT mixamorig:RightEye
						{
							OFFSET	-2.9445	7.6817	9.1205
							CHANNELS 3 Zrotation Yrotation Xrotation
							End Site
							{
								OFFSET 0.0000 0.0000 0.0000
							}
						}
					}
				}
				JOINT mixamorig:LeftShoulder
				{
					OFFSET	6.1058	9.1104	0.7056
					CHANNELS 3 Zrotation Yrotation Xrotation
					JOINT mixamorig:LeftArm
					{
						OFFSET	12.6532	-0.3431	-2.6009
						CHANNELS 3 Zrotation Yrotation Xrotation
						JOINT mixamorig:LeftForeArm
						{
							OFFSET	27.3517	-0.9645	-1.4034
							CHANNELS 3 Zrotation Yrotation Xrotation
							JOINT mixamorig:LeftHand
							{
								OFFSET	27.5619	-0.7072	1.5501
								CHANNELS 3 Zrotation Yrotation Xrotation
								JOINT mixamorig:LeftHandMiddle1
								{
									OFFSET	12.6631	-1.3962	0.9548
									CHANNELS 3 Zrotation Yrotation Xrotation
									JOINT mixamorig:LeftHandMiddle2
									{
										OFFSET	3.6093	-0.1669	0.0778
										CHANNELS 3 Zrotation Yrotation Xrotation
										JOINT mixamorig:LeftHandMiddle3
										{
											OFFSET	3.4005	-0.6274	0.1147
											CHANNELS 3 Zrotation Yrotation Xrotation
											End Site
											{
												OFFSET 3.6205 -0.6493 0.1199
											}
										}
									}
								}
								JOINT mixamorig:LeftHandThumb1
								{
									OFFSET	3.3268	-2.0475	3.5790
									CHANNELS 3 Zrotation Yrotation Xrotation
									JOINT mixamorig:LeftHandThumb2
									{
										OFFSET	3.4890	-1.4806	2.8548
										CHANNELS 3 Zrotation Yrotation Xrotation
										JOINT mixamorig:LeftHandThumb3
										{
											OFFSET	3.4086	-1.7658	2.1133
											CHANNELS 3 Zrotation Yrotation Xrotation
											End Site
											{
												OFFSET 2.7231 -1.1597 1.7902
											}
										}
									}
								}
								JOINT mixamorig:LeftHandIndex1
								{
									OFFSET	11.9722	-1.1061	3.7324
									CHANNELS 3 Zrotation Yrotation Xrotation
									JOINT mixamorig:LeftHandIndex2
									{
										OFFSET	3.8388	-0.6406	-0.0310
										CHANNELS 3 Zrotation Yrotation Xrotation
										JOINT mixamorig:LeftHandIndex3
										{
											OFFSET	3.3346	-0.7374	-0.0133
											CHANNELS 3 Zrotation Yrotation Xrotation
											End Site
											{
												OFFSET 2.9714 -0.8030 0.0009
											}
										}
									}
								}
								JOINT mixamorig:LeftHandRing1
								{
									OFFSET	12.1659	-1.6805	-1.2769
									CHANNELS 3 Zrotation Yrotation Xrotation
									JOINT mixamorig:LeftHandRing2
									{
										OFFSET	3.5926	-0.2366	-0.0771
										CHANNELS 3 Zrotation Yrotation Xrotation
										JOINT mixamorig:LeftHandRing3
										{
											OFFSET	3.2906	-0.3266	-0.0615
											CHANNELS 3 Zrotation Yrotation Xrotation
											End Site
											{
												OFFSET 3.5423 -0.9211 -0.0200
											}
										}
									}
								}
								JOINT mixamorig:LeftHandPinky1
								{
									OFFSET	11.0508	-2.1872	-3.8040
									CHANNELS 3 Zrotation Yrotation Xrotation
									JOINT mixamorig:LeftHandPinky2
									{
										OFFSET	4.1236	-0.3047	0.1212
										CHANNELS 3 Zrotation Yrotation Xrotation
										JOINT mixamorig:LeftHandPinky3
										{
											OFFSET	2.5805	-0.2597	0.0823
											CHANNELS 3 Zrotation Yrotation Xrotation
											End Site
											{
												OFFSET 2.9027 -0.3379 0.0963
											}
										}
									}
								}
							}
						}
					}
				}
				JOINT mixamorig:RightShoulder
				{
					OFFSET	-6.1057	9.1105	0.7056
					CHANNELS 3 Zrotation Yrotation Xrotation
					JOINT mixamorig:RightArm
					{
						OFFSET	-12.6532	-0.3429	-2.6009
						CHANNELS 3 Zrotation Yrotation Xrotation
						JOINT mixamorig:RightForeArm
						{
							OFFSET	-27.3517	-0.9641	-1.4034
							CHANNELS 3 Zrotation Yrotation Xrotation
							JOINT mixamorig:RightHand
							{
								OFFSET	-27.5619	-0.7068	1.5501
								CHANNELS 3 Zrotation Yrotation Xrotation
								JOINT mixamorig:RightHandMiddle1
								{
									OFFSET	-12.6631	-1.3960	0.9549
									CHANNELS 3 Zrotation Yrotation Xrotation
									JOINT mixamorig:RightHandMiddle2
									{
										OFFSET	-3.6093	-0.1669	0.0778
										CHANNELS 3 Zrotation Yrotation Xrotation
										JOINT mixamorig:RightHandMiddle3
										{
											OFFSET	-3.4005	-0.6273	0.1148
											CHANNELS 3 Zrotation Yrotation Xrotation
											End Site
											{
												OFFSET -3.6205 -0.6492 0.1199
											}
										}
									}
								}
								JOINT mixamorig:RightHandThumb1
								{
									OFFSET	-3.3269	-2.0474	3.5791
									CHANNELS 3 Zrotation Yrotation Xrotation
									JOINT mixamorig:RightHandThumb2
									{
										OFFSET	-3.4890	-1.4805	2.8548
										CHANNELS 3 Zrotation Yrotation Xrotation
										JOINT mixamorig:RightHandThumb3
										{
											OFFSET	-3.4086	-1.7658	2.1133
											CHANNELS 3 Zrotation Yrotation Xrotation
											End Site
											{
												OFFSET -2.7231 -1.1596 1.7902
											}
										}
									}
								}
								JOINT mixamorig:RightHandIndex1
								{
									OFFSET	-11.9722	-1.1059	3.7325
									CHANNELS 3 Zrotation Yrotation Xrotation
									JOINT mixamorig:RightHandIndex2
									{
										OFFSET	-3.8388	-0.6406	-0.0310
										CHANNELS 3 Zrotation Yrotation Xrotation
										JOINT mixamorig:RightHandIndex3
										{
											OFFSET	-3.3346	-0.7373	-0.0133
											CHANNELS 3 Zrotation Yrotation Xrotation
											End Site
											{
												OFFSET -2.9714 -0.8029 0.0009
											}
										}
									}
								}
								JOINT mixamorig:RightHandRing1
								{
									OFFSET	-12.1659	-1.6803	-1.2769
									CHANNELS 3 Zrotation Yrotation Xrotation
									JOINT mixamorig:RightHandRing2
									{
										OFFSET	-3.5926	-0.2366	-0.0771
										CHANNELS 3 Zrotation Yrotation Xrotation
										JOINT mixamorig:RightHandRing3
										{
											OFFSET	-3.2906	-0.3265	-0.0615
											CHANNELS 3 Zrotation Yrotation Xrotation
											End Site
											{
												OFFSET -3.5423 -0.9210 -0.0200
											}
										}
									}
								}
								JOINT mixamorig:RightHandPinky1
								{
									OFFSET	-11.0508	-2.1870	-3.8040
									CHANNELS 3 Zrotation Yrotation Xrotation
									JOINT mixamorig:RightHandPinky2
									{
										OFFSET	-4.1236	-0.3046	0.1212
										CHANNELS 3 Zrotation Yrotation Xrotation
										JOINT mixamorig:RightHandPinky3
										{
											OFFSET	-2.5805	-0.2597	0.0823
											CHANNELS 3 Zrotation Yrotation Xrotation
											End Site
											{
												OFFSET -2.9027 -0.3379 0.0963
											}
										}
									}
								}
							}
						}
					}
				}
			}
		}
	}
	JOINT mixamorig:RightUpLeg
	{
		OFFSET	-9.1245	-6.6564	-0.0554
		CHANNELS 3 Zrotation Yrotation Xrotation
		JOINT mixamorig:RightLeg
		{
			OFFSET	-0.0000	-40.5610	-1.7663
			CHANNELS 3 Zrotation Yrotation Xrotation
			JOINT mixamorig:RightFoot
			{
				OFFSET	0.4978	-41.9625	-3.3512
				CHANNELS 3 Zrotation Yrotation Xrotation
				JOINT mixamorig:RightToeBase
				{
					OFFSET	-0.3734	-10.4922	12.6407
					CHANNELS 3 Zrotation Yrotation Xrotation
					End Site
					{
						OFFSET 0.0000 -0.0000 9.9925
					}
				}
			}
		}
	}
	JOINT mixamorig:LeftUpLeg
	{
		OFFSET	9.1245	-6.6564	-0.0554
		CHANNELS 3 Zrotation Yrotation Xrotation
		JOINT mixamorig:LeftLeg
		{
			OFFSET	0.0000	-40.5610	-1.7663
			CHANNELS 3 Zrotation Yrotation Xrotation
			JOINT mixamorig:LeftFoot
			{
				OFFSET	-0.4978	-41.9625	-3.3512
				CHANNELS 3 Zrotation Yrotation Xrotation
				JOINT mixamorig:LeftToeBase
				{
					OFFSET	0.3734	-10.4922	12.6407
					CHANNELS 3 Zrotation Yrotation Xrotation
					End Site
					{
						OFFSET -0.0000 -0.0000 9.9925
					}
				}
			}
		}
	}
}
MOTION
Frames: 4
Frame Time: 0.0333333
-0.3208 95.4866 2.0304 -1.4975 -1.8285 -1.9630 0.8087 -0.0975 0.1129 1.3115 -0.1719 0.2058 1.3115 -0.1724 0.2055 0.1213 0.3607 -0.0185 -0.2919 1.9408 -9.5168 0.0000 -0.0000 0.0000 0.0000 -0.0000 0.0000 0.0000 -0.0000 0.0000 -6.7860 5.3750 -0.2440 -68.6880 -5.2428 37.0542 -0.4863 -16.1831 -0.4257 -7.2606 8.3246 -11.6317 -35.9603 -6.2710 2.5034 -19.9124 -0.3698 0.5664 -3.5466 -0.1687 0.0927 -3.7439 3.8064 3.3053 -5.9445 39.0669 8.7331 -6.9643 28.0244 10.6930 -36.6674 -12.0916 1.1540 -19.7397 -0.5673 -0.1275 2.6526 0.2301 0.0671 -39.6478 -6.1692 2.6823 -26.5292 -0.9972 -0.3823 3.1085 0.5030 0.1423 -42.8059 0.2262 3.4506 -23.0537 -4.5868 2.1071 -3.2363 -0.0960 0.0973 11.0971 -4.3695 -0.1350 62.2764 7.6614 25.1810 0.5014 14.1275 -0.3688 1.0559 1.3698 4.9817 39.3742 5.8112 2.7957 27.4220 0.5526 0.8203 8.4960 0.3514 0.2435 1.4946 -5.9327 -5.3391 -6.2716 -26.2070 12.7315 -0.6360 6.2258 -1.6340 41.7023 15.4405 0.9828 25.3259 0.7360 -0.1274 0.7386 -0.1199 0.0273 37.4310 2.1988 2.7463 25.1689 0.9069 -0.3791 -2.2050 -0.4784 0.1220 42.8965 6.3875 2.9419 34.4502 0.9428 1.2645 11.9809 0.4050 0.3854 -6.7165 -14.2274 -13.0985 -5.5427 -6.6851 31.2736 10.9211 0.0576 -12.3459 -0.0000 -0.0000 -0.0000 11.5474 16.4713 -11.8404 5.8226 4.6805 30.9233 -13.3579 -0.7942 -12.4539 -0.0000 0.0000 -0.0000 
-0.3114 95.4891 2.0343 -1.4872 -1.8664 -1.9732 0.8139 -0.0979 0.1127 1.3190 -0.1727 0.2042 1.3189 -0.1732 0.2038 0.0928 0.3659 0.0253 -0.2875 1.9289 -9.5058 0.0000 -0.0000 0.0000 0.0000 -0.0000 0.0000 0.0000 -0.0000 0.0000 -6.8391 5.3877 -0.2468 -68.7002 -5.2780 37.0390 -0.4877 -15.9956 -0.4205 -7.2809 8.0695 -11.7671 -35.9642 -6.2746 2.5035 -19.7527 -0.3647 0.5612 -3.5226 -0.1677 0.0920 -3.5876 3.9754 3.4087 -5.9448 39.0716 8.7346 -6.9650 28.0314 10.6958 -36.6656 -12.0926 1.1537 -19.6944 -0.5657 -0.1275 2.6526 0.2301 0.0671 -39.6608 -6.1759 2.6829 -26.5414 -0.9977 -0.3823 3.1335 0.5039 0.1429 -42.8062 0.2249 3.4506 -23.0482 -4.5867 2.1065 -3.2539 -0.0967 0.0979 11.0319 -4.3667 -0.1339 62.3284 7.6002 25.2341 0.5008 14.2123 -0.3711 0.9099 1.4092 4.7828 39.3842 5.8149 2.7963 27.3980 0.5520 0.8194 8.4847 0.3510 0.2434 1.4725 -5.9720 -5.3124 -6.2716 -26.2071 12.7315 -0.6365 6.2274 -1.6346 41.7286 15.4269 0.9873 25.3228 0.7359 -0.1274 0.7462 -0.1196 0.0272 37.4194 2.2144 2.7443 25.1803 0.9073 -0.3792 -2.2205 -0.4786 0.1237 42.8733 6.3941 2.9396 34.4125 0.9421 1.2628 11.9654 0.4045 0.3849 -6.7564 -14.2562 -13.0837 -5.5135 -6.6934 31.2650 10.8992 0.1197 -12.3309 -0.0000 -0.0000 -0.0000 11.5274 16.4628 -11.8061 5.8470 4.6980 30.9040 -13.3679 -0.7911 -12.4560 -0.0000 0.0000 -0.0000 
-0.3103 95.4784 2.0297 -1.4987 -1.9127 -1.9716 0.8136 -0.0996 0.1150 1.3174 -0.1756 0.2076 1.3174 -0.1761 0.2073 0.1194 0.3501 0.0374 -0.2998 1.8898 -9.3672 0.0000 -0.0000 0.0000 0.0000 -0.0000 0.0000 0.0000 -0.0000 0.0000 -6.8214 5.3838 -0.2459 -68.7124 -5.2942 36.9999 -0.4883 -15.9229 -0.4185 -7.3605 8.0876 -11.6656 -35.9514 -6.2641 2.5029 -19.6814 -0.3624 0.5589 -3.5001 -0.1668 0.0913 -3.6877 3.8296 3.3159 -5.9446 39.0693 8.7338 -6.9654 28.0350 10.6972 -36.6785 -12.1284 1.1487 -19.6721 -0.5649 -0.1274 2.6526 0.2301 0.0671 -39.6610 -6.1668 2.6835 -26.5440 -0.9978 -0.3824 3.1393 0.5041 0.1430 -42.7927 0.2184 3.4489 -23.0316 -4.5867 2.1047 -3.2006 -0.0946 0.0963 11.0657 -4.3753 -0.1358 62.2895 7.5662 25.3320 0.4999 14.3558 -0.3750 0.9275 1.3214 4.7959 39.3867 5.8095 2.7968 27.3921 0.5518 0.8192 8.4707 0.3505 0.2426 1.4606 -5.9998 -5.2932 -6.2716 -26.2070 12.7315 -0.6352 6.2229 -1.6328 41.7231 15.4428 0.9841 25.3324 0.7363 -0.1274 0.7464 -0.1196 0.0272 37.4257 2.2086 2.7452 25.1658 0.9067 -0.3791 -2.2119 -0.4784 0.1230 42.8428 6.4167 2.9354 34.4004 0.9419 1.2623 11.9490 0.4039 0.3843 -6.6795 -14.1852 -13.1386 -5.6175 -6.6508 31.3091 10.9573 0.0892 -12.3416 -0.0000 0.0000 -0.0000 11.5485 16.4706 -11.8223 5.8518 4.7104 30.9620 -13.3749 -0.7980 -12.4877 0.0000 0.0000 -0.0000 
-0.3091 95.4708 2.0265 -1.5116 -1.9459 -1.9715 0.8145 -0.1024 0.1177 1.3173 -0.1805 0.2120 1.3172 -0.1810 0.2116 0.1415 0.3414 0.0351 -0.2922 1.8744 -9.3473 0.0000 -0.0000 0.0000 0.0000 -0.0000 0.0000 0.0000 -0.0000 0.0000 -6.8043 5.3756 -0.2445 -68.7135 -5.3005 36.9750 -0.4885 -15.9022 -0.4179 -7.3957 8.1162 -11.6111 -35.9173 -6.2807 2.4993 -19.7043 -0.3631 0.5597 -3.4656 -0.1654 0.0904 -3.6983 3.8170 3.3081 -5.9427 39.0428 8.7249 -6.9648 28.0291 10.6948 -36.6942 -12.1694 1.1431 -19.9392 -0.5745 -0.1278 2.6526 0.2301 0.0671 -39.6128 -6.1305 2.6819 -26.5409 -0.9977 -0.3823 3.1539 0.5046 0.1434 -42.7694 0.2460 3.4492 -23.0509 -4.5868 2.1068 -3.2030 -0.0947 0.0963 11.1449 -4.3808 -0.1376 62.1939 7.5446 25.3879 0.4993 14.4409 -0.3774 1.1126 1.2616 4.9810 39.3892 5.7998 2.7974 27.3771 0.5514 0.8187 8.4586 0.3499 0.2415 1.4619 -5.9595 -5.3228 -6.2716 -26.2071 12.7315 -0.6373 6.2304 -1.6359 41.6583 15.4391 0.9795 25.3135 0.7356 -0.1274 0.7288 -0.1202 0.0274 37.3487 2.2436 2.7366 25.1442 0.9058 -0.3789 -2.2067 -0.4775 0.1256 42.7534 6.4138 2.9285 34.4000 0.9419 1.2622 11.9454 0.4038 0.3842 -6.5908 -14.1005 -13.1811 -5.7391 -6.6064 31.3349 11.0290 0.0417 -12.3476 -0.0000 -0.0000 -0.0000 11.5784 16.4868 -11.8314 5.8345 4.7126 31.0062 -13.3698 -0.8040 -12.5141 -0.0000 -0.0000 -0.0000 
